<?xml version="1.0" standalone="no"?><!DOCTYPE svg PUBLIC "-//W3C//DTD SVG 1.1//EN" "http://www.w3.org/Graphics/SVG/1.1/DTD/svg11.dtd"><svg t="1659364956555" class="icon" viewBox="0 0 1024 1024" version="1.1" xmlns="http://www.w3.org/2000/svg" p-id="7288" xmlns:xlink="http://www.w3.org/1999/xlink" width="200" height="200"><defs><style type="text/css">@font-face { font-family: feedback-iconfont; src: url("//at.alicdn.com/t/font_1031158_u69w8yhxdu.woff2?t=1630033759944") format("woff2"), url("//at.alicdn.com/t/font_1031158_u69w8yhxdu.woff?t=1630033759944") format("woff"), url("//at.alicdn.com/t/font_1031158_u69w8yhxdu.ttf?t=1630033759944") format("truetype"); }
</style></defs><path d="M149.333333 661.333333h213.333334v213.333334H149.333333zM753.066667 411.733333l-119.466667-119.466666c-8.533333-8.533333-8.533333-21.333333 0-29.866667l119.466667-119.466667c8.533333-8.533333 21.333333-8.533333 29.866666 0l119.466667 119.466667c8.533333 8.533333 8.533333 21.333333 0 29.866667l-119.466667 119.466666c-8.533333 8.533333-21.333333 8.533333-29.866666 0z" fill="#00BCD4" p-id="7289"></path><path d="M256 277.333333m-128 0a128 128 0 1 0 256 0 128 128 0 1 0-256 0Z" fill="#3F51B5" p-id="7290"></path><path d="M768 768m-128 0a128 128 0 1 0 256 0 128 128 0 1 0-256 0Z" fill="#448AFF" p-id="7291"></path><path d="M234.666667 512h42.666666v106.666667h-42.666666z" fill="#90A4AE" p-id="7292"></path><path d="M256 448l-64 85.333333h128z" fill="#90A4AE" p-id="7293"></path><path d="M426.666667 256h106.666666v42.666667h-106.666666z" fill="#90A4AE" p-id="7294"></path><path d="M597.333333 277.333333l-85.333333-64v128z" fill="#90A4AE" p-id="7295"></path><path d="M746.666667 448h42.666666v106.666667h-42.666666z" fill="#90A4AE" p-id="7296"></path><path d="M768 618.666667l64-85.333334h-128z" fill="#90A4AE" p-id="7297"></path></svg>